# xmcd CD database file
#
# Track frame offsets:
#	150
#	16788
#	36851
#	50597
#	63483
#	76330
#	86781
#	99620
#	109675
#	129154
#	140445
#	156211
#	170947
#	186848
#	198749
#	212660
#	225734
#	239133
#	252399
#	267748
#	283722
#	300495
#	311724
#	320950
#	334048
#	349653
#
# Disc length: 4797 seconds
#
# Revision: 0
# Processed by: cddbd v1.5.1PL0 Copyright (c) Steve Scherf et al.
# Submitted via: CDex 1.51
#
DISCID=9012bb1a
DTITLE=somtuxe com br abel e caim - Gosto do sertanejo caboclo nato
DYEAR=2005
DGENRE=caipira
TTITLE0=Pé de Ipê
TTITLE1=Bolo De Terra
TTITLE2=Duas Horas De Amor
TTITLE3=Coração Dividido
TTITLE4=Morena Dos Olhos Pretos
TTITLE5=Doutor Caipira
TTITLE6=O Sonho
TTITLE7=Aquela Ingrata
TTITLE8=A Carta
TTITLE9=Saudade
TTITLE10=O Barco
TTITLE11=abel e caim - O Milagre da Traição
TTITLE12=artist - Presente de Amor
TTITLE13=Adeus Por Toda a Vida
TTITLE14=Laço do Boi Soberano
TTITLE15=Moda Dos Trinta
TTITLE16=Milagre do Retrato
TTITLE17=Vou Deixar Esta Casa
TTITLE18=Pecado De Amor
TTITLE19=Folha Da Espada
TTITLE20=Pescador e Catireiro
TTITLE21=Nosso Romance
TTITLE22=Pinha no Pinheiro
TTITLE23=Porta do Coração
TTITLE24=Santa Luzia
TTITLE25=Mãe Amorosa
EXTD=YEAR: 2005
EXTT0=
EXTT1=
EXTT2=
EXTT3=
EXTT4=
EXTT5=
EXTT6=
EXTT7=
EXTT8=
EXTT9=
EXTT10=
EXTT11=
EXTT12=
EXTT13=
EXTT14=
EXTT15=
EXTT16=
EXTT17=
EXTT18=
EXTT19=
EXTT20=
EXTT21=
EXTT22=
EXTT23=
EXTT24=
EXTT25=
PLAYORDER=
